<?xml version="1.0" standalone="no"?>
<!DOCTYPE svg PUBLIC "-//W3C//DTD SVG 20010904//EN"
 "http://www.w3.org/TR/2001/REC-SVG-20010904/DTD/svg10.dtd">
<svg version="1.0" xmlns="http://www.w3.org/2000/svg"
 width="1280.000000pt" height="1280.000000pt" viewBox="0 0 1280.000000 1280.000000"
 preserveAspectRatio="xMidYMid meet">
<metadata>
Created by potrace 1.16, written by Peter Selinger 2001-2019
</metadata>
<g transform="translate(0.000000,1280.000000) scale(0.100000,-0.100000)"
fill="#585858" stroke="none">
<path d="M6330 9716 c-107 3 -200 2 -207 -3 -8 -6 10 -17 50 -32 34 -13 105
-42 157 -64 52 -23 132 -63 178 -90 45 -26 127 -82 181 -122 54 -41 131 -109
171 -152 39 -42 92 -105 117 -140 25 -35 62 -96 83 -137 21 -40 46 -108 55
-151 11 -49 16 -97 12 -132 -3 -29 -15 -74 -27 -98 -16 -33 -32 -49 -66 -66
-32 -15 -56 -20 -80 -16 -20 3 -55 18 -80 32 -24 14 -67 54 -95 88 -28 34 -84
101 -125 148 -41 47 -110 117 -155 155 -44 38 -117 93 -162 122 -45 30 -127
76 -182 102 -55 26 -142 62 -193 79 -52 17 -148 42 -215 56 -81 17 -172 27
-272 31 -92 4 -192 2 -259 -5 -60 -7 -168 -27 -241 -45 -72 -19 -174 -50 -226
-71 -52 -20 -141 -62 -199 -92 -58 -31 -139 -80 -181 -109 -42 -29 -82 -60
-89 -69 -7 -8 -10 -15 -8 -15 2 0 62 13 134 30 71 16 176 35 234 41 59 6 151
9 209 5 57 -3 144 -15 195 -27 50 -12 133 -41 184 -65 73 -34 109 -59 167
-114 55 -54 80 -88 106 -143 30 -65 33 -81 33 -167 1 -74 -4 -111 -23 -168
-13 -41 -42 -101 -64 -135 -21 -33 -67 -90 -100 -125 -34 -35 -91 -83 -127
-106 -36 -24 -91 -53 -123 -65 -34 -12 -81 -21 -115 -21 -34 0 -71 7 -92 18
-19 9 -45 33 -58 52 -19 28 -23 45 -20 85 2 28 15 73 28 100 16 32 65 90 137
163 62 62 113 118 113 125 0 6 -4 18 -8 25 -5 7 -24 17 -43 22 -18 6 -77 10
-130 10 -52 0 -142 -9 -200 -19 -57 -11 -151 -36 -208 -56 -57 -20 -140 -54
-183 -76 -43 -22 -107 -57 -143 -79 -35 -22 -99 -65 -142 -97 -43 -31 -125
-102 -182 -158 -57 -55 -130 -134 -164 -175 -33 -41 -90 -120 -125 -175 -36
-55 -91 -154 -123 -220 -31 -66 -71 -163 -89 -215 -17 -52 -42 -140 -55 -195
-13 -55 -29 -147 -35 -204 -5 -57 -10 -140 -9 -185 0 -81 0 -81 22 -36 11 25
43 90 70 145 27 55 63 120 80 145 17 25 51 69 75 99 25 29 67 70 93 91 27 21
69 46 93 55 30 12 57 15 81 11 26 -5 41 -16 55 -39 11 -18 20 -48 20 -68 0
-19 -7 -59 -16 -88 -8 -29 -49 -123 -90 -209 -42 -86 -87 -191 -100 -232 -14
-41 -33 -109 -44 -150 -10 -41 -24 -102 -30 -135 -6 -33 -15 -170 -19 -305 -7
-245 -7 -245 -60 -395 -29 -82 -61 -181 -72 -219 -11 -38 -26 -112 -34 -165
-8 -53 -15 -148 -15 -211 0 -63 7 -155 15 -205 8 -49 24 -123 35 -163 11 -41
38 -117 59 -170 21 -53 62 -140 91 -192 29 -52 86 -143 126 -201 41 -58 115
-149 165 -202 49 -53 124 -124 167 -160 42 -35 83 -67 91 -72 10 -6 12 -4 6 6
-4 8 -37 60 -72 117 -35 56 -84 141 -108 190 -24 48 -60 134 -79 192 -19 58
-42 140 -50 182 -9 42 -16 116 -16 164 0 50 7 112 16 145 9 32 27 68 40 80 20
18 28 20 47 12 13 -6 60 -64 105 -129 44 -66 112 -157 149 -204 37 -47 115
-134 173 -194 58 -59 146 -143 195 -185 50 -43 133 -107 185 -143 52 -36 138
-90 190 -119 52 -30 136 -73 185 -96 50 -23 127 -56 173 -72 45 -17 82 -27 82
-23 -1 4 -35 34 -78 67 -42 33 -108 87 -146 120 -38 33 -114 112 -168 175 -55
63 -126 154 -158 202 -32 48 -77 125 -99 170 -23 46 -48 111 -57 146 -12 50
-13 73 -5 113 6 27 18 61 27 75 10 14 31 32 47 41 21 10 44 13 74 9 24 -3 62
-15 86 -27 23 -12 117 -95 212 -188 94 -92 204 -194 245 -228 41 -33 123 -92
182 -131 58 -40 164 -101 235 -136 70 -35 163 -78 205 -95 43 -17 131 -46 197
-65 66 -20 169 -44 228 -55 59 -12 146 -25 193 -30 47 -6 155 -13 240 -16 85
-4 182 -14 215 -22 33 -8 125 -44 204 -80 79 -36 176 -76 214 -89 39 -13 109
-31 156 -40 52 -10 139 -16 221 -16 100 0 162 5 240 21 58 12 146 36 195 53
50 17 126 48 169 70 44 22 115 62 159 89 43 27 106 70 139 96 34 26 105 89
159 141 54 51 122 123 152 160 30 37 57 73 62 81 5 8 4 12 -1 9 -5 -3 -43 -26
-85 -51 -41 -25 -122 -68 -178 -97 -57 -28 -149 -66 -205 -85 -55 -19 -144
-41 -196 -50 -64 -12 -120 -15 -170 -11 -41 3 -93 11 -115 17 -22 6 -53 20
-68 31 -23 17 -28 26 -25 57 3 35 9 40 157 139 85 56 197 137 250 179 53 42
157 138 232 212 75 75 172 181 215 236 44 55 105 136 136 180 30 44 84 127
118 185 35 58 91 164 125 235 34 72 80 180 103 240 22 61 49 139 61 175 11 36
30 103 41 149 12 46 32 150 46 230 19 111 26 199 31 366 4 145 2 261 -7 340
-6 66 -20 165 -30 220 -10 55 -30 145 -44 201 -14 55 -42 147 -62 205 -19 57
-39 108 -43 112 -4 4 -11 -79 -14 -185 -3 -106 -13 -247 -22 -313 -9 -66 -27
-167 -41 -225 -13 -57 -36 -142 -50 -188 -14 -47 -46 -135 -71 -196 -24 -61
-70 -158 -100 -216 -31 -58 -83 -147 -115 -199 -33 -52 -80 -122 -106 -155
-25 -34 -61 -79 -80 -101 -19 -22 -84 -91 -146 -153 -61 -62 -154 -146 -206
-186 -52 -40 -133 -98 -180 -128 -47 -31 -119 -73 -160 -93 -41 -21 -110 -53
-153 -71 -43 -19 -124 -47 -180 -63 -56 -17 -154 -40 -217 -53 -115 -23 -115
-23 -1025 -23 -910 0 -910 0 -967 23 -32 13 -78 43 -106 70 -27 26 -60 67 -73
92 -21 39 -24 59 -24 150 0 93 4 112 28 164 15 32 48 88 74 124 26 37 77 96
113 132 36 36 207 198 380 360 173 162 414 387 535 500 121 114 317 296 435
405 118 109 217 202 218 207 2 4 -266 8 -595 8 -545 0 -606 -2 -688 -19 -49
-10 -126 -33 -170 -50 -44 -17 -123 -59 -175 -93 -55 -35 -131 -98 -180 -148
-47 -47 -103 -111 -124 -143 -22 -31 -43 -57 -48 -57 -4 0 -8 6 -8 14 0 8 5
50 11 93 6 43 26 125 45 183 19 58 55 142 80 186 24 45 75 122 112 170 38 49
99 117 136 151 36 35 101 86 143 114 42 29 117 71 167 95 50 23 125 52 166 63
41 12 124 26 185 32 70 6 401 9 910 7 800 -3 800 -3 859 -27 33 -13 81 -44
107 -68 27 -25 57 -66 70 -96 15 -35 24 -79 27 -134 3 -64 0 -96 -16 -150 -12
-38 -40 -98 -63 -133 -23 -36 -57 -82 -76 -103 -19 -21 -105 -104 -191 -185
-86 -81 -310 -291 -497 -466 -187 -176 -347 -327 -356 -335 -8 -9 -147 -139
-307 -290 -160 -151 -290 -277 -287 -281 2 -3 271 -5 597 -3 338 2 627 8 673
14 44 6 120 21 170 34 50 13 128 40 174 59 46 19 114 53 151 75 37 22 103 67
146 99 44 32 122 104 174 158 52 55 125 142 162 194 37 52 94 147 126 210 33
63 71 144 85 180 14 36 37 105 51 153 14 49 34 132 45 185 11 53 22 126 26
162 3 36 10 189 15 340 8 268 9 278 40 385 17 61 43 160 56 220 17 75 27 156
30 255 5 108 2 170 -10 241 -9 54 -31 144 -50 201 -19 57 -55 146 -80 196 -25
50 -63 118 -83 149 -20 32 -57 85 -82 118 -25 33 -68 84 -96 114 -27 29 -90
88 -139 129 -49 42 -119 95 -155 119 -36 24 -69 43 -73 43 -4 0 20 -38 55 -85
34 -47 88 -133 119 -193 32 -59 71 -149 87 -199 17 -51 35 -130 41 -177 8 -60
9 -104 1 -151 -5 -36 -18 -81 -28 -98 -14 -23 -27 -33 -49 -35 -28 -3 -38 6
-105 90 -41 51 -97 119 -125 150 -28 32 -97 100 -153 153 -57 53 -147 129
-202 170 -54 42 -141 102 -193 135 -53 33 -154 89 -225 125 -71 36 -182 85
-245 110 -64 24 -162 58 -219 75 -56 16 -145 39 -198 49 -52 11 -149 27 -215
36 -65 9 -207 19 -314 21z"/>
</g>
</svg>
